# xmcd
#
# Track frame offsets: 
#        150
#        14206
#        29451
#        42114
#        55034
#        69831
#        88009
#        107134
#        127364
#        135794
#        154694
#        178464
#        196159
#        215086
#
# Disc length: 3104 seconds
#
# Revision: 1
# Processed by: cddbd v1.5.2PL0 Copyright (c) Steve Scherf et al.
# Submitted via: ExactAudioCopy v0.99pb5
#
DISCID=c90c1e0e
DTITLE=Amerie - In Love and War
DYEAR=2009
DGENRE=R&B
TTITLE0=Tell Me You Love Me
TTITLE1=Heard 'Em All
TTITLE2=Dangerous
TTITLE3=Higher
TTITLE4=Why R U
TTITLE5=Pretty Brown (Feat. Trey Songz)
TTITLE6=More Than Love (Feat. Fabolous)
TTITLE7=Swag Back
TTITLE8=You're A Star (Interlude)
TTITLE9=Red Eye
TTITLE10=The Flowers
TTITLE11=Different People
TTITLE12=Dear John
TTITLE13=Heard 'Em All (Remix)
EXTD=
EXTT0=
EXTT1=
EXTT2=
EXTT3=
EXTT4=
EXTT5=
EXTT6=
EXTT7=
EXTT8=
EXTT9=
EXTT10=
EXTT11=
EXTT12=
EXTT13=
PLAYORDER=
